# xmcd CD database file
#
# Track frame offsets:
#	150
#	5855
#	20640
#	42270
#	65472
#	80400
#	113880
#	142967
#	174162
#	193780
#	201880
#	227315
#	240707
#	269540
#	301825
#	307545
#	318402
#
# Disc length: 4608 seconds
#
# Revision: 0
# Processed by: cddbd v1.5PL3 Copyright (c) Steve Scherf et al.
# Submitted via: CDex 1.51
#
DISCID=da11fe11
DTITLE=Sunaga t'Experience - Organ b. SUITE No.2
DYEAR=2002
DGENRE=Club
TTITLE0=Intro with 2 Men 4 Source - Ribbon In The Sky
TTITLE1=Rei Harakami - 300ml (milk)
TTITLE2=S-Tone Inc - Amazonia (Sax Version)
TTITLE3=Bobby Hughes Combinatin - Kerma Elastica
TTITLE4=Bobby Cole - A Perfect Day
TTITLE5=Wagon Cookin' - Natural High
TTITLE6=Reggae Disco Rockers - I Saw The Light (Littel Big Bee Rmx)
TTITLE7=Knu Je' - Seeds Of Life
TTITLE8=Sun Ra - Sunset On The Night On The River Nile (EDDIE and DUS'S Blue Clave Mix)
TTITLE9=Ian Pooley feat. Esthero - Balmes (A Better Life) <pooley's new vocal mix>
TTITLE10=Jestofunk - Be A Warrior
TTITLE11=One World feat. Miri Ben-Ari - Peace In The Middle East (War Drums)
TTITLE12=Yukihiro Fukutomi - Revisions
TTITLE13=Horace Silver Quintet - Psychedelic Sally
TTITLE14=Intro II with Soulstance - Mainstream
TTITLE15=Lorraine Bowen - Space
TTITLE16=Eureka! - Pupil
EXTD=YEAR: 2002
EXTT0=
EXTT1=
EXTT2=
EXTT3=
EXTT4=
EXTT5=
EXTT6=
EXTT7=
EXTT8=
EXTT9=
EXTT10=
EXTT11=
EXTT12=
EXTT13=
EXTT14=
EXTT15=
EXTT16=
PLAYORDER=
